<svg aria-hidden="true" style="position: absolute; width: 0; height: 0; overflow: hidden;" version="1.1" xmlns="http://www.w3.org/2000/svg" xmlns:xlink="http://www.w3.org/1999/xlink">
<symbol id="icon-chevron-down" viewBox="0 0 32 32">
  <path 
    fill="none"
    stroke="currentColor"
    stroke-linecap="round"
    stroke-linejoin="round"
    stroke-width="2"
    d="M8 12l8 8 8-8">
  </path>
</symbol>
<symbol id="icon-close-circle" viewBox="0 0 32 32">
<path fill="none" stroke="#fff" style="stroke: var(--color1, #fff)" stroke-linejoin="miter" stroke-linecap="butt" stroke-miterlimit="4" stroke-width="1.333" d="M25.5 16c0 5.247-4.253 9.5-9.5 9.5s-9.5-4.253-9.5-9.5v0c0-5.247 4.253-9.5 9.5-9.5s9.5 4.253 9.5 9.5v0z"></path>
<path fill="none" stroke="#fff" style="stroke: var(--color1, #fff)" stroke-linejoin="miter" stroke-linecap="round" stroke-miterlimit="4" stroke-width="1.333" d="M19.7 12.346l-3.7 3.7M16 16.046l-3.7 3.699M16 16.045l3.7 3.7M16 16.045l-3.7-3.699"></path>
</symbol>
<symbol id="icon-log-out" viewBox="0 0 32 32">
<path fill="none" stroke="#fff" style="stroke: var(--color1, #fff)" stroke-linejoin="round" stroke-linecap="round" stroke-miterlimit="4" stroke-width="1.3333" d="M13.077 6.5h-3.653c-1.615 0-2.924 1.309-2.924 2.923v13.155c0 1.613 1.309 2.923 2.923 2.923h3.653M11.501 16h14.616M26.117 16l-4.385 4.385M26.116 16l-4.385-4.384"></path>
</symbol>
<symbol id="icon-bookmark-filled" viewBox="0 0 32 32">
  <path 
    fill="currentColor"
    d="M15.996 4.667c1.685 0 3.232 0.16 4.457 0.347 1.552 0.237 2.768 1.3 3.115 2.787 0.417 1.793 0.827 4.521 0.757 8.187-0.077 4.044-0.667 6.963-1.237 8.867-0.153 0.515-0.509 0.779-0.912 0.847-0.421 0.072-0.941-0.068-1.364-0.489-0.768-0.765-1.649-1.592-2.461-2.232-0.347-0.282-0.734-0.549-1.14-0.787l-0.044-0.024c-0.353-0.196-0.767-0.373-1.171-0.373-0.397 0-0.825 0.173-1.2 0.367-0.397 0.205-0.84 0.485-1.291 0.805-0.905 0.639-1.907 1.467-2.789 2.232-0.467 0.405-1.013 0.501-1.447 0.383-0.417-0.113-0.769-0.433-0.877-0.992-0.373-1.917-0.725-4.749-0.725-8.589 0-3.831 0.395-6.533 0.787-8.273 0.327-1.441 1.503-2.468 3.016-2.701 1.357-0.223 2.925-0.353 4.521-0.359h0.005z">
  </path>
</symbol>

<symbol id="icon-bookmark-outline" viewBox="0 0 32 32">
  <path 
    fill="none"
    stroke="currentColor"
    stroke-linejoin="round" 
    stroke-linecap="round" 
    stroke-miterlimit="4" 
    stroke-width="1.3333" 
    d="M15.996 4.667c1.685 0 3.232 0.16 4.457 0.347 1.552 0.237 2.768 1.3 3.115 2.787 0.417 1.793 0.827 4.521 0.757 8.187-0.077 4.044-0.667 6.963-1.237 8.867-0.153 0.515-0.509 0.779-0.912 0.847-0.421 0.072-0.941-0.068-1.364-0.489-0.768-0.765-1.649-1.592-2.461-2.232-0.347-0.282-0.734-0.549-1.14-0.787l-0.044-0.024c-0.353-0.196-0.767-0.373-1.171-0.373-0.397 0-0.825 0.173-1.2 0.367-0.397 0.205-0.84 0.485-1.291 0.805-0.905 0.639-1.907 1.467-2.789 2.232-0.467 0.405-1.013 0.501-1.447 0.383-0.417-0.113-0.769-0.433-0.877-0.992-0.373-1.917-0.725-4.749-0.725-8.589 0-3.831 0.395-6.533 0.787-8.273 0.327-1.441 1.503-2.468 3.016-2.701 1.357-0.223 2.925-0.353 4.521-0.359h0.005z">
  </path>
</symbol>
<symbol id="icon-burger-menu" viewBox="0 0 32 32">
  <path 
    fill="none"
    stroke="currentColor"
    stroke-linecap="round"
    stroke-miterlimit="4"
    stroke-width="2"
    d="M7 9h18M7 16h18M7 23h18">
  </path>
</symbol>
<symbol id="icon-check-box" viewBox="0 0 32 32">
<path fill="none" stroke="#595d62" style="stroke: var(--color2, #595d62)" stroke-linejoin="miter" stroke-linecap="butt" stroke-miterlimit="4" stroke-width="3" d="M16 1.5c3.814 0 6.522 0.002 8.58 0.28 2.010 0.27 3.17 0.778 4.016 1.624s1.354 2.006 1.624 4.018c0.278 2.056 0.28 4.764 0.28 8.578s-0.004 6.522-0.28 8.58c-0.27 2.010-0.778 3.17-1.624 4.016s-2.006 1.354-4.018 1.624c-2.056 0.278-4.764 0.28-8.578 0.28s-6.522-0.004-8.58-0.28c-2.010-0.27-3.17-0.778-4.016-1.624s-1.354-2.006-1.624-4.018c-0.28-2.056-0.28-4.764-0.28-8.578s0.002-6.522 0.28-8.58c0.27-2.010 0.778-3.17 1.624-4.016s2.006-1.354 4.018-1.624c2.056-0.28 4.764-0.28 8.578-0.28z"></path>
</symbol>
<symbol id="icon-checkbox-checked" viewBox="0 0 32 32">
<path fill="none" stroke="#fff" style="stroke: var(--color1, #fff)" stroke-linejoin="round" stroke-linecap="round" stroke-miterlimit="4" stroke-width="3" d="M7 14.94l6.666 7.060 11.334-12"></path>
</symbol>
<symbol id="icon-clock" viewBox="0 0 32 32">
  <path 
    fill="none"
    stroke="currentColor"
    stroke-linecap="round"
    stroke-linejoin="round"
    stroke-width="1.5"
    d="M16 10v6l4 3M25.5 16c0 5.2-4.3 9.5-9.5 9.5S6.5 21.2 6.5 16 10.8 6.5 16 6.5 25.5 10.8 25.5 16z">
  </path>
</symbol>

<symbol id="icon-close" viewBox="0 0 32 32">
<path stroke="currentColor" fill="none" stroke-linejoin="round" stroke-linecap="round" stroke-miterlimit="4" stroke-width="1.3333" d="M7 7l9 9M16 16l-9 9M16 16l9 9M16 16l9-9"></path>
</symbol>
<symbol id="icon-delete" viewBox="0 0 32 32">
  <path 
    fill="none"
    stroke="currentColor"
    stroke-linecap="round"
    stroke-linejoin="round"
    stroke-width="2"
    d="M10 9h12M13 9V7c0-1.1.9-2 2-2h2c1.1 0 2 .9 2 2v2M12 9v14c0 1.1.9 2 2 2h4c1.1 0 2-.9 2-2V9H12zM16 13v8"/>
</symbol>

<symbol id="icon-eye-crossed" viewBox="0 0 32 32">
  <path 
    fill="none"
    stroke="currentColor"
    stroke-linecap="round"
    stroke-linejoin="round"
    stroke-width="2"
    d="M3 3l26 26M10.5 10.7C8 12 6.2 14.1 5 16c1.6 2.5 5.7 7 11 7 2 0 3.9-.7 5.5-1.8M21.6 17.6c.3-.5.4-1 .4-1.6 0-2-1.6-3.6-3.6-3.6-.6 0-1.1.1-1.6.4M16 9c5.3 0 9.4 4.5 11 7-1.1 1.7-2.6 3.3-4.4 4.5"/>
</symbol>
<symbol id="icon-filter" viewBox="0 0 32 32">
  <path 
    fill="none"
    stroke="currentColor"
    stroke-linecap="round"
    stroke-linejoin="round"
    stroke-width="2.2"
    d="M4 8h24L18 16v6a2 2 0 0 1-4 0v-6L4 8z">
  </path>
</symbol>

<symbol id="icon-left-arrow" viewBox="0 0 32 32">
<path fill="none" stroke="#fff" style="stroke: var(--color1, #fff)" stroke-linejoin="round" stroke-linecap="round" stroke-miterlimit="4" stroke-width="1.28" d="M21.76 16.004h-11.52M10.24 16.004l5.169 5.171M10.24 16.003l5.169-5.17"></path>
</symbol>
<symbol id="icon-logo" viewBox="0 0 32 32">
<path fill="#fff" style="fill: var(--color1, #fff)" d="M13.802 6.9c0.313-0.032 0.635 0.001 0.939 0.078 0.899 0.223 1.509 0.776 1.971 1.548 0.369-0.039 0.741-0.017 1.102 0.068 0.783 0.197 1.431 0.677 1.842 1.323l0.007 0.012c0.272 0.429 0.434 0.951 0.434 1.511 0 0.252-0.033 0.495-0.094 0.728l0.004-0.020c-0.257 0.972-0.875 1.478-1.715 1.964 0.023 0.596 0.015 1.197 0.017 1.794 0 0.378 0.025 0.771-0.012 1.145-0.010 0.159-0.057 0.304-0.132 0.431l0.002-0.004c-0.11 0.074-0.244 0.122-0.389 0.13l-0.002 0c-0.385 0.047-0.803 0.015-1.191 0.015l-2.288-0.008c-0.813 0.060-1.675 0.003-2.493 0.004-0.545 0-1.159 0.064-1.697 0.003-0.191-0.021-0.273-0.147-0.378-0.289-0.068-1.072-0.010-2.179-0.010-3.254-0.448-0.229-0.83-0.51-1.141-0.905-0.377-0.474-0.605-1.081-0.605-1.741 0-0.126 0.008-0.251 0.024-0.372l-0.002 0.014c0.125-0.816 0.561-1.511 1.181-1.974l0.008-0.006c0.484-0.366 1.095-0.586 1.759-0.586 0.149 0 0.295 0.011 0.437 0.032l-0.016-0.002c0.11-0.19 0.218-0.38 0.354-0.553 0.524-0.668 1.254-0.979 2.085-1.084zM13.846 8.217c-0.511 0.1-0.95 0.282-1.259 0.724-0.173 0.246-0.33 0.957-0.545 1.066-0.284 0.034-0.582-0.097-0.857-0.157-0.554-0.12-1.179 0.099-1.522 0.543-0.281 0.367-0.415 0.871-0.339 1.325 0.068 0.41 0.32 0.754 0.663 0.99 0.375 0.257 0.793 0.307 1.052 0.711 0.049 0.934 0.014 1.884 0.015 2.82 0.664-0.006 1.45-0.009 2.236-0.009 0.364 0 0.727 0.001 1.091 0.002l-0.056-0 2.663-0.006c0-0.474-0.103-2.833 0.118-3.064 0.105-0.11 0.343-0.175 0.484-0.23 0.634-0.247 1.098-0.675 1.156-1.378 0.039-0.465-0.113-0.882-0.426-1.229-0.269-0.299-0.652-0.491-1.080-0.508l-0.003-0c-0.375-0.021-1.148 0.333-1.384 0.069-0.114-0.128-0.16-0.349-0.219-0.51-0.239-0.664-0.742-1.049-1.448-1.141-0.086-0.012-0.185-0.018-0.285-0.018-0.019 0-0.038 0-0.057 0.001l0.003-0zM26.378 2.787c0.236-0.017 0.519-0.014 0.706 0.156 0.174 0.158 0.181 0.412 0.123 0.623-0.14 0.512-0.589 1.125-0.859 1.59-0.433 0.746-0.837 1.511-1.257 2.264-0.26 0.465-0.574 0.944-0.783 1.43-0.066 0.155-0.116 0.318-0.109 0.488 0.007 0.147 0.058 0.259 0.173 0.355 0.161 0.138 0.373 0.244 0.591 0.215 0.145-0.019 0.262-0.095 0.352-0.207 0.308-0.383 0.491-0.916 0.716-1.349l1.552-2.996c0.184-0.358 0.346-0.797 0.603-1.106 0.137-0.165 0.264-0.242 0.481-0.26 0.172-0.015 0.339 0.029 0.471 0.142 0.127 0.111 0.207 0.272 0.207 0.453 0 0.032-0.003 0.064-0.008 0.095l0-0.003c-0.059 0.385-0.402 0.851-0.585 1.202l-1.409 2.763c-0.252 0.498-0.547 1.008-0.749 1.526-0.047 0.121-0.094 0.256-0.077 0.388 0.020 0.153 0.135 0.288 0.259 0.375 0.139 0.097 0.328 0.162 0.499 0.124 0.196-0.044 0.334-0.185 0.444-0.343 0.25-0.359 0.417-0.83 0.601-1.227l1.202-2.549c0.227-0.485 0.433-1.052 0.735-1.491 0.109-0.159 0.226-0.285 0.427-0.315s0.407 0.053 0.559 0.18c0.128 0.106 0.223 0.23 0.228 0.398 0.015 0.434-0.781 1.939-0.997 2.422l-0.852 1.905c-0.419 0.94-0.776 1.881-1.482 2.658-0.694 0.766-1.486 1.091-2.439 1.432-0.202 0.072-0.51 0.143-0.681 0.265-0.337 0.241-0.572 0.687-0.771 1.038-0.151 0.271-0.346 0.564-0.441 0.86-0.14 0.435-0.047 1.766-0.047 2.291l-0.001 6.784 0.004 2.075c0 0.405 0.025 0.83-0.019 1.233-0.014 0.163-0.082 0.308-0.186 0.419l0-0c-0.331 0.32-1.549 0.207-2.016 0.205l-3.185-0.004c0.184-0.487 0.41-0.966 0.65-1.428 0.413-0.043 0.839-0.024 1.254-0.025l2.056 0.001v-8.865c-0.266 0.63-0.605 1.247-0.912 1.86 0.344-0.85-0.196 0.221-0.73 1.295l-0.887 1.97c-1.4 2.999-2.055 4.301-2.719 5.597l0.758-1.629c-0.278 0.551-0.525 1.131-0.841 1.661-0.124 0.222-0.291 0.405-0.491 0.543l-0.005 0.003c-0.291 0.186-0.645 0.252-0.984 0.184-0.34-0.072-0.622-0.276-0.797-0.554l-0.003-0.005c-0.114-0.175-0.182-0.39-0.182-0.621 0-0.121 0.019-0.238 0.054-0.348l-0.002 0.008c0.165-0.545 0.509-1.070 0.781-1.569l1.295-2.37c1.569-2.872 3.151-5.744 4.669-8.643 0.358-0.683 1.168-1.978 1.362-2.621 0.213-0.701-0.233-1.54-0.365-2.228-0.049-0.237-0.077-0.51-0.077-0.79 0-0.653 0.154-1.271 0.427-1.818l-0.011 0.024c0.207-0.408 0.458-0.799 0.689-1.195l1.196-2.065 0.966-1.675c0.191-0.33 0.372-0.686 0.603-0.989 0.072-0.088 0.16-0.159 0.259-0.211l0.005-0.002z"></path>
<path fill="#fff" style="fill: var(--color1, #fff)" d="M4.657 1.545c1.108-0.058 2.24-0.008 3.352-0.007l12.141-0.001c0.937 0 1.91-0.053 2.844 0.006 0.191 0.013 0.407 0.066 0.553 0.197 0.126 0.116 0.18 0.32 0.205 0.481 0.049 0.329 0.020 0.688 0.019 1.021l-0.008 1.887c-0.463 0.744-0.969 1.466-1.455 2.195 0.043-0.49 0.014-0.999 0.014-1.49v-2.766c-5.539 0.005-11.084 0.055-16.621-0.003-0.056 2.265-0.005 4.545-0.005 6.811l0.003 12.53 9.775-0.008c0.427 0 0.882-0.031 1.307 0.023-0.158 0.487-0.457 0.977-0.689 1.436l-10.011-0.017c-0.529 0-1.078-0.025-1.601 0.051-0.471 0.068-0.888 0.257-1.231 0.534l0.005-0.004c-0.431 0.343-0.745 0.842-0.789 1.393-0.039 0.487 0.153 0.956 0.469 1.323 0.297 0.345 0.752 0.605 1.202 0.69 0.658 0.124 1.636 0.036 2.328 0.039l4.708 0.004c0.875 0 1.767-0.037 2.639 0.027-0.155 0.453-0.297 0.943-0.385 1.413-0.789-0.070-1.63-0.014-2.426-0.014h-4.715c-0.82 0.001-1.753 0.095-2.554-0.077-0.562-0.12-1.090-0.412-1.529-0.773-0.709-0.582-1.155-1.48-1.228-2.382-0.041-0.504-0.012-1.028-0.010-1.534l0.002-2.456v-8.495l-0.003-5.888c-0.001-0.757-0.072-2.090 0.032-2.805 0.097-0.709 0.4-1.375 0.876-1.916 0.686-0.8 1.666-1.332 2.769-1.428l0.016-0.001zM4.219 3.13c-0.78 0.316-1.352 0.712-1.684 1.503-0.114 0.273-0.145 0.61-0.155 0.904-0.049 1.441-0.004 2.899-0.003 4.344l0.001 8.333 0.001 3.695c0 0.418-0.078 0.989 0.015 1.388l0.033 0.012 0.052-0.033c0.588-0.434 1.086-0.672 1.808-0.823-0.056-2.059-0.007-4.134-0.005-6.194 0.003-2.317-0.038-4.637-0.012-6.953 0.016-1.515 0.019-3.030 0.010-4.545 0-0.365 0.060-1.316-0.010-1.615l-0.050-0.015z"></path>
</symbol>
<symbol id="icon-photo" viewBox="0 0 32 32">
  <path 
    fill="none"
    stroke="currentColor"
    stroke-linecap="round"
    stroke-linejoin="round"
    stroke-width="2"
    d="M6 11
       c0-1.1.9-2 2-2h2.5l1-2
       c.3-.6 1-.9 1.6-.9h6c.6 0 1.3.3 1.6.9l1 2H24
       c1.1 0 2 .9 2 2v11
       c0 1.7-1.3 3-3 3H9
       c-1.7 0-3-1.3-3-3V11z">
  </path>
  <circle 
    fill="none"
    stroke="currentColor"
    stroke-width="2"
    cx="16" cy="17" r="4">
  </circle>
</symbol>
<symbol id="icon-delete" viewBox="0 0 32 32"><path stroke-linecap="round" stroke-linejoin="round" stroke-width="1.333" d="M16 21.846v-8.769M6.5 9.423h2.192m16.808 0h-2.192m-3.654 0h-7.308m7.308 0V7.961c0-.807-.654-1.462-1.462-1.462h-4.385c-.807 0-1.462.654-1.462 1.462v1.462m7.309 0h3.654m-10.962 0H8.692m14.616 0v13.154a2.923 2.923 0 0 1-2.923 2.923h-8.769a2.923 2.923 0 0 1-2.923-2.923V9.423"/></symbol>

</svg>