<svg xmlns="http://www.w3.org/2000/svg" aria-hidden="true" style="position:absolute;width:0;height:0;overflow:hidden"><defs><symbol id="icon-Favor" viewBox="0 0 26 32"><path fill="none" stroke="#fff" stroke-linecap="round" stroke-linejoin="round" stroke-width="1.882" d="M13.171.941c2.379 0 4.562.228 6.292.491 2.191.333 3.908 1.834 4.397 3.932.59 2.532 1.169 6.385 1.07 11.559-.11 5.709-.943 9.829-1.746 12.516-.217.727-.72 1.101-1.289 1.197-.594.1-1.328-.098-1.925-.691-1.086-1.081-2.329-2.248-3.476-3.151-.572-.45-1.142-.852-1.671-1.145-.499-.277-1.083-.528-1.653-.528-.56 0-1.165.247-1.693.518-.563.289-1.186.686-1.824 1.136-1.277.902-2.692 2.07-3.938 3.153-.658.571-1.432.706-2.042.54-.589-.16-1.086-.613-1.239-1.401C1.909 26.36 1.41 22.362 1.41 16.94c0-5.409.557-9.224 1.112-11.68.46-2.035 2.12-3.485 4.255-3.814a42.287 42.287 0 0 1 6.392-.505z" style="stroke:var(--color1, #fff)"/></symbol></defs></svg>